<?xml version="1.0" encoding="UTF-8"?>
<svg width="82px" height="82px" viewBox="0 0 82 82" version="1.1" xmlns="http://www.w3.org/2000/svg" xmlns:xlink="http://www.w3.org/1999/xlink">
    <title>Untitled</title>
    <g id="Page-1" stroke="none" stroke-width="1" fill="none" fill-rule="evenodd">
        <g id="deeplLogo" fill-rule="nonzero">
            <path d="M82.0004802,75.9424124 C82.0004802,79.2874108 79.2876509,82 75.9428926,82 L6.05734748,82 C2.71258916,82 0,79.2871707 0,75.9424124 L0,6.05758758 C0,2.71114859 2.71258916,0 6.05734748,0 L75.9426525,0 C79.2876509,0 82.0004802,2.71114859 82.0004802,6.05758758 L82.0004802,75.9424124 L82.0004802,75.9424124 Z" id="Shape" fill="#1F4B7F"></path>
            <g id="Group" transform="translate(15.000000, 8.000000)">
                <path d="M0,17.1366732 L0,43.7432084 C-0.00538205134,45.1163536 0.719741551,46.3872435 1.90035062,47.0738107 L24.6091811,60.3579369 L24.7802099,60.4536439 L35.9730979,67 L35.9350915,61.2575823 L35.9350915,58.0418284 L35.9540947,58.0992526 L35.9540947,57.0273346 C35.955118,56.400983 36.2603081,55.8147605 36.7712325,55.4577405 L37.5123575,55.0366299 L37.8544152,54.8452159 L51.0996494,47.0738107 C52.2802584,46.3872435 53.0053821,45.1163536 53,43.7432084 L53,17.1366732 C53.0053821,15.7635281 52.2802584,14.4926381 51.0996494,13.806071 L28.3908189,0.521944767 C27.2181357,-0.173981589 25.7628611,-0.173981589 24.5901779,0.521944767 L1.90035062,13.8443538 C0.731484228,14.5240734 0.00817661255,15.7772092 0,17.1366732 Z" id="Path" stroke="#FFFFFF" fill="#0F2B46"></path>
                <path d="M17.2210391,18.1490153 C18.7448975,16.6169949 21.1640226,16.6169949 22.687881,18.1490153 C23.77363,19.1962191 24.1355464,20.7476321 23.77363,22.1245111 L34.2501562,28.3301632 L34.3073009,28.2913779 C35.7574805,26.8872117 38.0085224,26.8045495 39.5543004,28.098699 C41.1000783,29.3928485 41.4551738,31.6574097 40.3819996,33.3772108 C39.3088254,35.0970119 37.144389,35.7319861 35.3368706,34.8572852 C33.5293523,33.9825843 32.6463645,31.8728894 33.2786965,29.9397543 L33.2406,29.9591469 L22.8402668,23.8116728 L22.687881,23.9668141 C21.0886899,25.3387269 18.7175481,25.2090493 17.27192,23.6706156 C15.8262919,22.1321819 15.8040159,19.7147905 17.2210391,18.1490153 Z M23.7926783,40.9353941 L34.0025292,34.9042759 L32.0977063,33.8182868 L22.8974115,39.2288397 C22.1867529,38.4144849 21.1789972,37.9326898 20.1096213,37.8960328 C19.0402454,37.8593758 18.0029402,38.2710686 17.2400874,39.0349131 C15.8340655,40.3883512 15.5939795,42.5777726 16.6722102,44.2135679 C17.7504409,45.8493632 19.8315339,46.4529531 21.594635,45.6412436 C23.357736,44.829534 24.2870204,42.8400043 23.7926783,40.9353941 L23.7926783,40.9353941 Z" id="Shape" fill="#FFFFFF"></path>
            </g>
        </g>
    </g>
</svg>